<svg width="960" height="720" xmlns="http://www.w3.org/2000/svg" xmlns:xlink="http://www.w3.org/1999/xlink" overflow="hidden"><g><rect x="0" y="0" width="960" height="720" fill="#FFFFFF"/><g><g><g><path d="M445.808 102.164 445.808 102.164C256.339 102.164 102.164 256.339 102.164 445.808 102.164 635.276 256.339 789.451 445.808 789.451 635.276 789.451 789.451 635.276 789.451 445.808 789.451 256.339 635.276 102.164 445.808 102.164ZM770.876 436.52 622.273 436.52C619.487 311.137 564.69 194.112 475.528 122.597 638.991 137.457 765.303 272.128 770.876 436.52ZM436.52 436.52 287.917 436.52C290.704 312.065 346.43 196.898 436.52 130.027L436.52 436.52ZM436.52 455.095 436.52 761.588C346.43 693.788 290.704 578.621 287.917 455.095L436.52 455.095ZM455.095 455.095 603.698 455.095C600.912 579.55 545.186 694.717 455.095 761.588L455.095 455.095ZM455.095 436.52 455.095 130.027C545.186 197.827 600.912 312.994 603.698 436.52L455.095 436.52ZM416.087 122.597C326.926 194.112 272.128 311.137 269.342 436.52L120.74 436.52C126.312 272.128 252.624 137.457 416.087 122.597ZM120.74 455.095 269.342 455.095C272.128 580.479 326.926 697.503 416.087 769.018 252.624 754.158 126.312 619.487 120.74 455.095ZM475.528 769.018C564.69 697.503 619.487 580.479 622.273 455.095L770.876 455.095C766.232 617.629 642.706 751.372 482.03 769.018 479.243 769.018 475.528 769.018 475.528 769.018Z" stroke="#1D2133" stroke-width="10.0323" fill="#1D2133" transform="matrix(1.00067 0 0 1 33.2785 -87.047)"/></g></g></g></g></svg>