<svg width="960" height="720" xmlns="http://www.w3.org/2000/svg" xmlns:xlink="http://www.w3.org/1999/xlink" overflow="hidden"><defs><clipPath id="clip0"><rect x="0" y="0" width="960" height="720"/></clipPath><clipPath id="clip1"><rect x="78" y="443" width="804" height="277"/></clipPath><clipPath id="clip2"><rect x="78" y="443" width="804" height="277"/></clipPath><clipPath id="clip3"><rect x="-179" y="443" width="1061" height="277"/></clipPath><clipPath id="clip4"><rect x="249" y="0" width="462" height="576"/></clipPath><clipPath id="clip5"><rect x="249" y="0" width="462" height="576"/></clipPath></defs><g clip-path="url(#clip0)"><rect x="0" y="0" width="960" height="720" fill="#FFFFFF"/><g clip-path="url(#clip1)"><g clip-path="url(#clip2)"><g clip-path="url(#clip3)"><path d="M38.7442 148.135C26.342 148.135 16.784 143.215 10.0704 133.375 3.35681 123.536 0 110.442 0 94.0931L0 94.0931C0 77.8475 3.33118 64.8812 9.99355 55.1952 16.6047 45.4578 26.1883 40.5892 38.7442 40.5892L38.7442 40.5892C51.1465 40.5892 60.7813 45.4578 67.6487 55.1952 74.4648 64.8812 77.8728 77.8475 77.8728 94.0931L77.8728 94.0931C77.8728 110.339 74.4648 123.407 67.6487 133.299 60.7813 143.19 51.1465 148.135 38.7442 148.135L38.7442 148.135ZM38.7442 128.994C44.2791 128.994 47.8409 125.611 49.4296 118.846 51.0184 112.082 51.8127 103.779 51.8127 93.9394L51.8127 93.9394C51.8127 84.0996 51.0184 75.7972 49.4296 69.0324 47.8409 62.2675 44.2791 58.8851 38.7442 58.8851L38.7442 58.8851C33.2093 58.8851 29.6988 62.0625 28.2126 68.4174 26.7264 74.8235 25.9832 82.639 25.9832 91.8638L25.9832 91.8638C25.9832 103.19 26.7264 112.21 28.2126 118.923 29.6988 125.637 33.2093 128.994 38.7442 128.994L38.7442 128.994ZM129.916 145.752 108.699 145.752 87.482 43.8948 113.85 41.896 122.69 100.704 135.759 44.1254 157.36 41.896 168.66 100.012 179.884 44.1254 200.947 42.9723 177.116 145.752 156.284 145.752 144.445 78.4109 129.916 145.752ZM213.862 146.828 213.862 44.1254 239.691 41.896 239.691 55.1952C244.97 50.4803 250.146 46.8672 255.22 44.356 260.345 41.8448 265.06 40.5892 269.365 40.5892L269.365 40.5892C275.874 40.5892 281.203 42.9467 285.354 47.6616 289.454 52.4277 291.504 58.8082 291.504 66.803L291.504 66.803 291.504 144.676 265.675 146.828 265.675 76.566C265.675 67.3412 262.548 62.7288 256.296 62.7288L256.296 62.7288C254.195 62.7288 251.889 63.3437 249.378 64.5737 246.815 65.8037 243.587 67.5974 239.691 69.9549L239.691 69.9549 239.691 144.676 213.862 146.828ZM352.234 148.366C336.604 148.366 325.611 141.626 319.256 128.148 312.952 114.67 309.8 97.2196 309.8 75.7972L309.8 75.7972C309.8 53.0427 313.183 35.5155 319.947 23.2158 326.712 10.916 337.577 4.76616 352.542 4.76616L352.542 4.76616C381.241 4.76616 395.591 28.2126 395.591 75.1054L395.591 75.1054C395.591 96.1172 392.362 113.567 385.905 127.456 379.447 141.396 368.224 148.366 352.234 148.366L352.234 148.366ZM352.542 126.534C359.101 126.534 363.406 122.28 365.457 113.773 367.557 105.214 368.608 92.2482 368.608 74.8748L368.608 74.8748C368.608 60.9863 367.609 49.4552 365.61 40.2817 363.56 31.1594 359.204 26.5982 352.542 26.5982L352.542 26.5982C345.931 26.5982 341.626 31.1338 339.627 40.2048 337.68 49.3272 336.706 60.8325 336.706 74.721L336.706 74.721C336.706 92.1967 337.731 105.214 339.781 113.773 341.779 122.28 346.033 126.534 352.542 126.534L352.542 126.534ZM414.579 146.828 414.579 44.1254 440.408 41.896 440.408 55.1952C445.687 50.4803 450.888 46.8672 456.013 44.356 461.087 41.8448 465.776 40.5892 470.081 40.5892L470.081 40.5892C476.59 40.5892 481.92 42.9467 486.071 47.6616 490.171 52.4277 492.221 58.8082 492.221 66.803L492.221 66.803 492.221 144.676 466.391 146.828 466.391 76.566C466.391 67.3412 463.265 62.7288 457.013 62.7288L457.013 62.7288C454.912 62.7288 452.606 63.3437 450.094 64.5737 447.583 65.8037 444.354 67.5974 440.408 69.9549L440.408 69.9549 440.408 144.676 414.579 146.828ZM540.036 144.676 514.207 146.828 514.207 10.6854 540.036 7.37985 540.036 144.676ZM588.543 27.5207 562.714 28.5969 562.714 1.84496 588.543 0 588.543 27.5207ZM588.39 144.676 562.56 146.828 562.56 44.1254 588.39 41.896 588.39 144.676ZM611.067 146.828 611.067 44.1254 636.897 41.896 636.897 55.1952C642.176 50.4803 647.377 46.8672 652.502 44.356 657.576 41.8448 662.265 40.5892 666.57 40.5892L666.57 40.5892C673.079 40.5892 678.408 42.9467 682.56 47.6616 686.659 52.4277 688.709 58.8082 688.709 66.803L688.709 66.803 688.709 144.676 662.88 146.828 662.88 76.566C662.88 67.3412 659.754 62.7288 653.501 62.7288L653.501 62.7288C651.4 62.7288 649.094 63.3437 646.583 64.5737 644.071 65.8037 640.843 67.5974 636.897 69.9549L636.897 69.9549 636.897 144.676 611.067 146.828ZM743.52 148.135C731.221 148.135 721.817 143.241 715.308 133.452 708.799 123.715 705.545 110.723 705.545 94.4775L705.545 94.4775C705.545 77.9751 708.85 64.8812 715.461 55.1952 722.124 45.4578 731.784 40.5892 744.443 40.5892L744.443 40.5892C756.487 40.5892 765.711 45.4578 772.117 55.1952 778.521 64.8812 781.726 77.9751 781.726 94.4775L781.726 94.4775C781.726 95.4515 781.55 96.1433 781.188 96.5531 780.781 97.0143 780.573 97.2964 780.573 97.3987L780.573 97.3987 731.374 97.3987C731.374 105.394 732.399 112.697 734.449 119.308 736.55 125.867 739.753 129.147 744.058 129.147L744.058 129.147C748.876 129.147 752.438 126.38 754.744 120.845 757.102 115.31 758.331 112.414 758.434 112.158L758.434 112.158 778.036 119.538C775.423 128.404 771.295 135.4 765.66 140.525 760.023 145.598 752.643 148.135 743.52 148.135L743.52 148.135ZM731.374 82.4852 756.281 82.4852C756.281 75.1054 755.282 69.263 753.283 64.9581 751.336 60.6532 748.261 58.5007 744.058 58.5007L744.058 58.5007C741.957 58.5007 739.933 59.5513 737.985 61.6525 736.038 63.7025 734.449 66.5724 733.219 70.2624 731.989 73.9523 731.374 78.0266 731.374 82.4852L731.374 82.4852Z" transform="matrix(1 0 0 1.00092 99.0898 507.264)"/></g></g></g><g clip-path="url(#clip4)"><g clip-path="url(#clip5)"><g><g><path d="M-541.632 1130.75C-556.864 1130.75-569.408 1140.61-573.888 1154.05L-626.752 1148.67C-627.2 1127.62-637.056 1109.25-652.736 1097.6L-617.344 1037.57C-614.208 1038.46-610.624 1039.36-606.592 1039.36-587.776 1039.36-572.544 1024.13-572.544 1005.31-572.544 986.496-587.776 971.264-606.592 971.264-625.408 971.264-640.64 986.496-640.64 1005.31-640.64 1015.17-636.608 1023.68-629.888 1029.95L-665.28 1089.98C-673.344 1086.4-682.304 1084.16-692.16 1084.16-708.288 1084.16-722.624 1089.98-734.272 1099.39L-764.736 1070.72C-761.6 1065.79-759.808 1059.52-759.808 1053.25-759.808 1034.43-775.04 1019.2-793.856 1019.2-812.672 1019.2-827.904 1034.43-827.904 1053.25-827.904 1072.06-812.672 1087.3-793.856 1087.3-786.688 1087.3-780.416 1085.06-774.592 1081.47L-744.128 1110.14C-752.192 1120.9-757.12 1134.78-757.12 1149.12-757.12 1153.6-756.672 1158.53-755.776 1162.56L-818.048 1183.62C-823.872 1173.76-834.624 1167.04-847.168 1167.04-865.984 1167.04-881.216 1182.27-881.216 1201.09-881.216 1219.9-865.984 1235.14-847.168 1235.14-828.352 1235.14-813.12 1219.9-813.12 1201.09-813.12 1199.74-813.12 1198.85-813.12 1197.5L-750.848 1176.45C-740.544 1198.85-718.144 1214.08-691.712 1214.08-689.024 1214.08-686.784 1214.08-684.544 1213.63L-672.896 1265.15C-684.544 1270.53-692.16 1282.18-692.16 1295.62-692.16 1314.43-676.928 1329.66-658.112 1329.66-639.296 1329.66-624.064 1314.43-624.064 1295.62-624.064 1276.8-639.296 1261.57-658.112 1261.57-658.112 1261.57-658.112 1261.57-658.56 1261.57L-670.208 1210.05C-649.152 1202.43-633.024 1184.51-628.096 1162.11L-575.232 1167.49C-573.44 1184.51-559.104 1197.5-541.632 1197.5-522.816 1197.5-507.584 1182.27-507.584 1163.46-508.032 1145.98-523.264 1130.75-541.632 1130.75Z" transform="matrix(1.00158 0 0 1 1171.35 -863.36)"/></g><path d="M80.64 308.32C54.8267 308.32 34.9333 298.08 20.96 277.6 6.98667 257.12 0 229.867 0 195.84L0 195.84C0 162.027 6.93333 135.04 20.8 114.88 34.56 94.6133 54.5067 84.48 80.64 84.48L80.64 84.48C106.453 84.48 126.507 94.6133 140.8 114.88 154.987 135.04 162.08 162.027 162.08 195.84L162.08 195.84C162.08 229.653 154.987 256.853 140.8 277.44 126.507 298.027 106.453 308.32 80.64 308.32L80.64 308.32ZM80.64 268.48C92.16 268.48 99.5733 261.44 102.88 247.36 106.187 233.28 107.84 216 107.84 195.52L107.84 195.52C107.84 175.04 106.187 157.76 102.88 143.68 99.5733 129.6 92.16 122.56 80.64 122.56L80.64 122.56C69.12 122.56 61.8133 129.173 58.72 142.4 55.6267 155.733 54.08 172 54.08 191.2L54.08 191.2C54.08 214.773 55.6267 233.547 58.72 247.52 61.8133 261.493 69.12 268.48 80.64 268.48L80.64 268.48ZM270.4 303.36 226.24 303.36 182.08 91.36 236.96 87.2 255.36 209.6 282.56 91.84 327.52 87.2 351.04 208.16 374.4 91.84 418.24 89.44 368.64 303.36 325.28 303.36 300.64 163.2 270.4 303.36ZM445.12 305.6 445.12 91.84 498.88 87.2 498.88 114.88C509.867 105.067 520.64 97.5467 531.2 92.32 541.867 87.0933 551.68 84.48 560.64 84.48L560.64 84.48C574.187 84.48 585.28 89.3867 593.92 99.2 602.453 109.12 606.72 122.4 606.72 139.04L606.72 139.04 606.72 301.12 552.96 305.6 552.96 159.36C552.96 140.16 546.453 130.56 533.44 130.56L533.44 130.56C529.067 130.56 524.267 131.84 519.04 134.4 513.707 136.96 506.987 140.693 498.88 145.6L498.88 145.6 498.88 301.12 445.12 305.6ZM733.12 308.8C700.587 308.8 677.707 294.773 664.48 266.72 651.36 238.667 644.8 202.347 644.8 157.76L644.8 157.76C644.8 110.4 651.84 73.92 665.92 48.32 680 22.72 702.613 9.92 733.76 9.92L733.76 9.92C793.493 9.92 823.36 58.72 823.36 156.32L823.36 156.32C823.36 200.053 816.64 236.373 803.2 265.28 789.76 294.293 766.4 308.8 733.12 308.8L733.12 308.8ZM733.76 263.36C747.413 263.36 756.373 254.507 760.64 236.8 765.013 218.987 767.2 192 767.2 155.84L767.2 155.84C767.2 126.933 765.12 102.933 760.96 83.84 756.693 64.8533 747.627 55.36 733.76 55.36L733.76 55.36C720 55.36 711.04 64.8 706.88 83.68 702.827 102.667 700.8 126.613 700.8 155.52L700.8 155.52C700.8 191.893 702.933 218.987 707.2 236.8 711.36 254.507 720.213 263.36 733.76 263.36L733.76 263.36ZM862.88 305.6 862.88 91.84 916.64 87.2 916.64 114.88C927.627 105.067 938.453 97.5467 949.12 92.32 959.68 87.0933 969.44 84.48 978.4 84.48L978.4 84.48C991.947 84.48 1003.04 89.3867 1011.68 99.2 1020.21 109.12 1024.48 122.4 1024.48 139.04L1024.48 139.04 1024.48 301.12 970.72 305.6 970.72 159.36C970.72 140.16 964.213 130.56 951.2 130.56L951.2 130.56C946.827 130.56 942.027 131.84 936.8 134.4 931.573 136.96 924.853 140.693 916.64 145.6L916.64 145.6 916.64 301.12 862.88 305.6ZM1124 301.12 1070.24 305.6 1070.24 22.24 1124 15.36 1124 301.12ZM1224.96 57.28 1171.2 59.52 1171.2 3.84 1224.96 0 1224.96 57.28ZM1224.64 301.12 1170.88 305.6 1170.88 91.84 1224.64 87.2 1224.64 301.12ZM1271.84 305.6 1271.84 91.84 1325.6 87.2 1325.6 114.88C1336.59 105.067 1347.41 97.5467 1358.08 92.32 1368.64 87.0933 1378.4 84.48 1387.36 84.48L1387.36 84.48C1400.91 84.48 1412 89.3867 1420.64 99.2 1429.17 109.12 1433.44 122.4 1433.44 139.04L1433.44 139.04 1433.44 301.12 1379.68 305.6 1379.68 159.36C1379.68 140.16 1373.17 130.56 1360.16 130.56L1360.16 130.56C1355.79 130.56 1350.99 131.84 1345.76 134.4 1340.53 136.96 1333.81 140.693 1325.6 145.6L1325.6 145.6 1325.6 301.12 1271.84 305.6ZM1547.52 308.32C1521.92 308.32 1502.35 298.133 1488.8 277.76 1475.25 257.493 1468.48 230.453 1468.48 196.64L1468.48 196.64C1468.48 162.293 1475.36 135.04 1489.12 114.88 1502.99 94.6133 1523.09 84.48 1549.44 84.48L1549.44 84.48C1574.51 84.48 1593.71 94.6133 1607.04 114.88 1620.37 135.04 1627.04 162.293 1627.04 196.64L1627.04 196.64C1627.04 198.667 1626.67 200.107 1625.92 200.96 1625.07 201.92 1624.64 202.507 1624.64 202.72L1624.64 202.72 1522.24 202.72C1522.24 219.36 1524.37 234.56 1528.64 248.32 1533.01 261.973 1539.68 268.8 1548.64 268.8L1548.64 268.8C1558.67 268.8 1566.08 263.04 1570.88 251.52 1575.79 240 1578.35 233.973 1578.56 233.44L1578.56 233.44 1619.36 248.8C1613.92 267.253 1605.33 281.813 1593.6 292.48 1581.87 303.04 1566.51 308.32 1547.52 308.32L1547.52 308.32ZM1522.24 171.68 1574.08 171.68C1574.08 156.32 1572 144.16 1567.84 135.2 1563.79 126.24 1557.39 121.76 1548.64 121.76L1548.64 121.76C1544.27 121.76 1540.05 123.947 1536 128.32 1531.95 132.587 1528.64 138.56 1526.08 146.24 1523.52 153.92 1522.24 162.4 1522.24 171.68L1522.24 171.68Z" transform="matrix(1.00158 0 0 1 828.407 133.632)"/></g></g></g></g></svg>