<svg width="960" height="720" xmlns="http://www.w3.org/2000/svg" xmlns:xlink="http://www.w3.org/1999/xlink" overflow="hidden"><defs><clipPath id="clip0"><rect x="0" y="0" width="960" height="720"/></clipPath><clipPath id="clip1"><rect x="192" y="1" width="576" height="719"/></clipPath><clipPath id="clip2"><rect x="192" y="1" width="576" height="719"/></clipPath></defs><g clip-path="url(#clip0)"><rect x="0" y="0" width="960" height="720" fill="#FFFFFF"/><g clip-path="url(#clip1)"><g clip-path="url(#clip2)"><g><g><path d="M-676.1 1411.48C-695.113 1411.48-710.771 1423.78-716.364 1440.56L-782.352 1433.85C-782.911 1407.56-795.214 1384.63-814.787 1370.09L-770.608 1295.16C-766.694 1296.28-762.22 1297.4-757.187 1297.4-733.7 1297.4-714.686 1278.38-714.686 1254.89-714.686 1231.41-733.7 1212.39-757.187 1212.39-780.674 1212.39-799.688 1231.41-799.688 1254.89-799.688 1267.2-794.655 1277.82-786.266 1285.65L-830.445 1360.59C-840.511 1356.11-851.695 1353.32-863.998 1353.32-884.13 1353.32-902.025 1360.59-916.565 1372.33L-954.592 1336.54C-950.678 1330.39-948.441 1322.56-948.441 1314.73-948.441 1291.24-967.454 1272.23-990.942 1272.23-1014.43 1272.23-1033.44 1291.24-1033.44 1314.73-1033.44 1338.22-1014.43 1357.23-990.942 1357.23-981.994 1357.23-974.165 1354.44-966.895 1349.96L-928.868 1385.75C-938.934 1399.17-945.086 1416.51-945.086 1434.41-945.086 1440-944.526 1446.15-943.408 1451.18L-1021.14 1477.47C-1028.41 1465.16-1041.83 1456.77-1057.49 1456.77-1080.98 1456.77-1099.99 1475.79-1099.99 1499.27-1099.99 1522.76-1080.98 1541.78-1057.49 1541.78-1034 1541.78-1014.99 1522.76-1014.99 1499.27-1014.99 1497.6-1014.99 1496.48-1014.99 1494.8L-937.256 1468.52C-924.394 1496.48-896.433 1515.49-863.439 1515.49-860.084 1515.49-857.288 1515.49-854.492 1514.93L-839.952 1579.24C-854.492 1585.95-863.998 1600.49-863.998 1617.27-863.998 1640.76-844.985 1659.77-821.497 1659.77-798.01 1659.77-778.997 1640.76-778.997 1617.27-778.997 1593.78-798.01 1574.77-821.497 1574.77-821.497 1574.77-821.497 1574.77-822.057 1574.77L-836.596 1510.46C-810.313 1500.95-790.181 1478.58-784.03 1450.62L-718.041 1457.33C-715.804 1478.58-697.909 1494.8-676.1 1494.8-652.612 1494.8-633.599 1475.79-633.599 1452.3-634.158 1430.49-653.172 1411.48-676.1 1411.48Z" transform="matrix(1.00036 0 0 1 1341.94 -1076.7)"/></g><path d="M100.66 384.865C68.4382 384.865 43.6059 372.082 26.1636 346.518 8.72121 320.954 0 286.935 0 244.46L0 244.46C0 202.253 8.65462 168.566 25.9639 143.401 43.14 118.102 68.0388 105.453 100.66 105.453L100.66 105.453C132.882 105.453 157.914 118.102 175.756 143.401 193.464 168.566 202.319 202.253 202.319 244.46L202.319 244.46C202.319 286.667 193.464 320.62 175.756 346.318 157.914 372.017 132.882 384.865 100.66 384.865L100.66 384.865ZM100.66 335.134C115.04 335.134 124.294 326.346 128.421 308.771 132.549 291.195 134.613 269.625 134.613 244.061L134.613 244.061C134.613 218.496 132.549 196.926 128.421 179.351 124.294 161.775 115.04 152.987 100.66 152.987L100.66 152.987C86.28 152.987 77.1593 161.242 73.2981 177.753 69.4368 194.396 67.5061 214.701 67.5061 238.668L67.5061 238.668C67.5061 268.093 69.4368 291.529 73.2981 308.97 77.1593 326.412 86.28 335.134 100.66 335.134L100.66 335.134ZM337.531 378.673 282.407 378.673 227.284 114.041 295.789 108.849 318.757 261.636 352.709 114.641 408.831 108.849 438.191 259.839 467.35 114.641 522.074 111.645 460.16 378.673 406.035 378.673 375.278 203.717 337.531 378.673ZM555.627 381.469 555.627 114.641 622.734 108.849 622.734 143.401C636.449 131.151 649.896 121.764 663.078 115.24 676.393 108.715 688.642 105.453 699.827 105.453L699.827 105.453C716.737 105.453 730.584 111.578 741.369 123.828 752.02 136.211 757.347 152.787 757.347 173.559L757.347 173.559 757.347 375.877 690.24 381.469 690.24 198.923C690.24 174.957 682.117 162.973 665.874 162.973L665.874 162.973C660.415 162.973 654.424 164.571 647.899 167.767 641.242 170.962 632.854 175.622 622.734 181.747L622.734 181.747 622.734 375.877 555.627 381.469ZM915.127 385.464C874.518 385.464 845.957 367.954 829.446 332.937 813.069 297.92 804.88 252.583 804.88 196.926L804.88 196.926C804.88 137.808 813.668 92.2717 831.244 60.3161 848.819 28.3606 877.046 12.3828 915.926 12.3828L915.926 12.3828C990.488 12.3828 1027.77 73.2981 1027.77 195.129L1027.77 195.129C1027.77 249.719 1019.38 295.056 1002.61 331.139 985.829 367.355 956.669 385.464 915.127 385.464L915.127 385.464ZM915.926 328.743C932.968 328.743 944.153 317.692 949.479 295.589 954.938 273.354 957.668 239.667 957.668 194.529L957.668 194.529C957.668 158.446 955.072 128.488 949.879 104.654 944.552 80.954 933.236 69.1039 915.926 69.1039L915.926 69.1039C898.75 69.1039 887.565 80.8875 882.373 104.455 877.314 128.155 874.783 158.047 874.783 194.13L874.783 194.13C874.783 239.533 877.446 273.354 882.772 295.589 887.965 317.692 899.016 328.743 915.926 328.743L915.926 328.743ZM1077.1 381.469 1077.1 114.641 1144.21 108.849 1144.21 143.401C1157.92 131.151 1171.44 121.764 1184.75 115.24 1197.93 108.715 1210.12 105.453 1221.3 105.453L1221.3 105.453C1238.21 105.453 1252.06 111.578 1262.84 123.828 1273.49 136.211 1278.82 152.787 1278.82 173.559L1278.82 173.559 1278.82 375.877 1211.71 381.469 1211.71 198.923C1211.71 174.957 1203.59 162.973 1187.35 162.973L1187.35 162.973C1181.89 162.973 1175.9 164.571 1169.37 167.767 1162.85 170.962 1154.46 175.622 1144.21 181.747L1144.21 181.747 1144.21 375.877 1077.1 381.469ZM1403.05 375.877 1335.94 381.469 1335.94 27.7614 1403.05 19.1733 1403.05 375.877ZM1529.07 71.5005 1461.97 74.2967 1461.97 4.79333 1529.07 0 1529.07 71.5005ZM1528.67 375.877 1461.57 381.469 1461.57 114.641 1528.67 108.849 1528.67 375.877ZM1587.59 381.469 1587.59 114.641 1654.7 108.849 1654.7 143.401C1668.41 131.151 1681.93 121.764 1695.24 115.24 1708.42 108.715 1720.61 105.453 1731.79 105.453L1731.79 105.453C1748.7 105.453 1762.55 111.578 1773.33 123.828 1783.98 136.211 1789.31 152.787 1789.31 173.559L1789.31 173.559 1789.31 375.877 1722.2 381.469 1722.2 198.923C1722.2 174.957 1714.08 162.973 1697.84 162.973L1697.84 162.973C1692.38 162.973 1686.39 164.571 1679.86 167.767 1673.34 170.962 1664.95 175.622 1654.7 181.747L1654.7 181.747 1654.7 375.877 1587.59 381.469ZM1931.71 384.865C1899.76 384.865 1875.33 372.148 1858.42 346.718 1841.5 321.419 1833.05 287.666 1833.05 245.459L1833.05 245.459C1833.05 202.584 1841.64 168.566 1858.81 143.401 1876.12 118.102 1901.22 105.453 1934.11 105.453L1934.11 105.453C1965.4 105.453 1989.37 118.102 2006.01 143.401 2022.65 168.566 2030.98 202.584 2030.98 245.459L2030.98 245.459C2030.98 247.989 2030.52 249.787 2029.58 250.851 2028.52 252.049 2027.98 252.782 2027.98 253.048L2027.98 253.048 1900.16 253.048C1900.16 273.819 1902.82 292.793 1908.15 309.969 1913.6 327.011 1921.93 335.533 1933.11 335.533L1933.11 335.533C1945.63 335.533 1954.88 328.343 1960.87 313.963 1967 299.583 1970.19 292.06 1970.46 291.395L1970.46 291.395 2021.39 310.568C2014.6 333.602 2003.87 351.777 1989.23 365.092 1974.59 378.274 1955.41 384.865 1931.71 384.865L1931.71 384.865ZM1900.16 214.302 1964.87 214.302C1964.87 195.129 1962.27 179.95 1957.08 168.765 1952.02 157.581 1944.03 151.989 1933.11 151.989L1933.11 151.989C1927.65 151.989 1922.39 154.718 1917.33 160.177 1912.27 165.503 1908.15 172.959 1904.95 182.546 1901.75 192.133 1900.16 202.718 1900.16 214.302L1900.16 214.302Z" transform="matrix(1.00036 0 0 1 914.378 167.808)"/></g></g></g></g></svg>